<?xml version="1.0" standalone="no"?>
<!DOCTYPE svg PUBLIC "-//W3C//DTD SVG 20010904//EN"
 "http://www.w3.org/TR/2001/REC-SVG-20010904/DTD/svg10.dtd">
<svg version="1.0" xmlns="http://www.w3.org/2000/svg"
 width="840.000000pt" height="840.000000pt" viewBox="0 0 840.000000 840.000000"
 preserveAspectRatio="xMidYMid meet">
<metadata>
Created by potrace 1.14, written by Peter Selinger 2001-2017
</metadata>
<g transform="translate(0.000000,840.000000) scale(0.100000,-0.100000)"
fill="#000000" stroke="none">
<path d="M3807 8394 c-1 -1 -48 -5 -104 -8 -56 -4 -110 -8 -120 -10 -10 -2
-45 -7 -78 -10 -72 -8 -292 -56 -395 -86 -96 -28 -347 -128 -382 -152 -16 -11
-28 -17 -28 -14 0 18 -304 -175 -415 -263 -63 -49 -247 -228 -301 -292 -50
-59 -104 -137 -104 -151 0 -9 17 -20 43 -27 68 -21 180 -75 243 -119 141 -98
219 -199 259 -335 16 -56 18 -69 31 -172 3 -27 6 -666 6 -1418 0 -1146 2
-1369 14 -1374 7 -3 44 5 81 18 37 13 70 24 73 24 3 1 25 8 50 15 25 8 50 15
55 16 6 0 17 4 25 7 15 6 194 52 240 61 14 3 36 7 50 11 49 10 186 35 225 40
22 2 51 7 64 9 13 3 49 8 80 11 31 3 74 8 96 10 48 6 203 14 336 19 53 2 101
6 107 10 6 3 9 16 6 29 -18 83 11 186 69 237 15 14 42 39 60 56 89 84 298 233
319 227 4 -2 8 2 8 7 0 6 4 10 9 10 5 0 26 8 47 17 22 9 41 17 44 18 3 0 14 6
25 12 11 5 38 14 60 18 22 5 47 10 55 12 100 22 299 27 351 8 8 -2 26 -6 40
-9 15 -2 65 -22 111 -45 63 -30 104 -58 155 -108 152 -148 218 -275 294 -563
12 -46 45 -214 53 -265 3 -22 8 -58 11 -80 36 -233 41 -1243 9 -1480 -2 -16
-6 -64 -9 -105 -2 -41 -7 -100 -10 -130 -4 -30 -8 -71 -10 -90 -7 -76 -18
-139 -36 -225 -25 -113 -27 -120 -29 -120 -1 0 -4 -13 -6 -29 -3 -16 -9 -37
-14 -45 -4 -9 -20 -52 -35 -96 -40 -116 -131 -296 -180 -354 -49 -58 -156
-144 -195 -156 -14 -4 -27 -11 -30 -14 -13 -17 -142 -56 -225 -67 -72 -10
-258 -11 -271 -1 -7 4 -16 7 -20 5 -5 -1 -31 3 -59 11 -167 44 -302 135 -423
285 -46 57 -103 184 -123 271 -15 71 -18 84 -24 140 -3 28 -8 64 -11 80 -3 17
-6 155 -8 308 -2 153 -6 280 -8 282 -2 2 -10 -17 -17 -43 -105 -390 -194 -615
-334 -842 -81 -131 -223 -301 -348 -416 -153 -140 -428 -309 -649 -398 -76
-30 -30 -31 106 -2 12 2 39 7 60 10 22 3 50 8 64 11 14 2 48 7 75 11 28 3 61
7 75 9 185 27 675 27 950 1 143 -14 186 -19 192 -22 4 -3 33 -7 65 -9 32 -3
69 -7 83 -10 32 -7 128 -18 270 -31 72 -7 445 -6 500 0 19 3 69 7 110 10 41 4
98 11 125 16 28 6 64 12 80 14 97 14 347 89 455 138 24 11 49 21 55 22 5 1 24
9 40 18 17 9 59 32 95 50 81 43 193 109 200 118 3 3 26 21 52 38 25 18 53 38
60 45 7 8 19 16 25 18 16 6 135 112 216 194 73 73 211 240 256 309 14 23 28
43 31 46 13 13 143 245 161 288 8 17 17 32 21 32 5 0 8 6 8 14 0 8 13 43 29
78 97 215 193 554 217 773 1 11 6 54 10 95 5 41 9 179 9 305 0 235 -7 347 -30
495 -4 25 -8 54 -10 65 -1 11 -6 38 -10 60 -15 77 -20 99 -36 155 -7 25 -13
47 -14 50 -27 98 -90 266 -106 285 -5 5 -9 16 -9 25 0 9 -5 21 -12 28 -6 6
-13 17 -14 24 -3 20 -111 204 -167 287 -87 126 -244 299 -345 381 -24 19 -56
45 -70 58 -15 12 -49 37 -77 54 -27 18 -52 35 -55 39 -3 3 -36 22 -74 43 -38
20 -74 40 -80 44 -21 16 -183 81 -265 107 -95 30 -287 71 -381 81 -84 9 -329
10 -400 1 -149 -19 -220 -34 -358 -78 -91 -29 -306 -127 -399 -183 -107 -64
-273 -188 -365 -274 -26 -24 -51 -41 -56 -38 -5 3 -8 747 -8 1756 1 1610 0
1753 -15 1766 -12 11 -35 14 -79 12 -34 -2 -62 -4 -63 -4z"/>
<path d="M3718 3985 c-2 -2 -48 -6 -103 -9 -109 -8 -151 -12 -217 -21 -24 -4
-59 -9 -78 -11 -124 -18 -436 -84 -490 -105 -14 -5 -35 -11 -47 -14 -39 -7
-346 -112 -378 -129 -16 -9 -33 -16 -37 -16 -3 0 -44 -18 -91 -40 -46 -22 -89
-40 -95 -40 -6 0 -12 -4 -14 -9 -1 -5 -32 -23 -67 -41 -36 -18 -76 -40 -90
-50 -14 -10 -53 -35 -86 -56 -66 -42 -197 -140 -232 -173 -12 -12 -24 -21 -26
-21 -8 0 -154 -148 -192 -195 -22 -27 -48 -57 -57 -67 -10 -10 -18 -20 -18
-23 0 -5 -62 -97 -71 -105 -27 -25 -163 -337 -174 -400 0 -3 -6 -27 -13 -55
-6 -27 -14 -72 -18 -100 -3 -27 -9 -61 -12 -75 -15 -64 -6 -449 13 -545 20
-103 69 -279 94 -340 5 -11 13 -31 18 -45 49 -119 190 -374 222 -400 3 -3 18
-21 32 -40 15 -19 37 -47 51 -61 57 -61 62 -96 44 -304 -24 -277 -25 -418 -4
-461 l13 -29 121 0 c131 0 156 9 148 48 -23 110 -22 675 1 882 3 28 8 68 10
90 8 89 16 161 20 185 3 14 7 39 9 55 2 17 7 50 11 75 4 25 9 59 11 75 2 17 9
54 15 82 6 29 12 65 14 80 2 16 5 28 6 28 1 0 3 9 5 20 1 11 5 29 7 40 6 23
26 102 31 125 35 138 68 249 121 400 52 147 63 173 138 330 43 92 157 286 176
300 3 3 20 23 36 45 41 55 144 163 179 188 34 24 34 24 -45 -93 -31 -47 -67
-103 -79 -125 -12 -22 -37 -67 -56 -100 -55 -98 -129 -252 -180 -375 -41 -100
-127 -342 -140 -392 -2 -10 -6 -26 -8 -35 -3 -10 -18 -72 -34 -138 -30 -121
-59 -255 -66 -310 -3 -17 -9 -59 -15 -95 -14 -91 -23 -172 -26 -265 -2 -44 -5
-82 -6 -85 -1 -3 0 -9 1 -15 1 -5 3 -53 5 -105 2 -83 9 -171 19 -233 3 -24 24
-36 50 -31 12 2 37 6 56 9 19 3 46 7 60 10 24 6 42 9 93 19 12 3 37 9 55 15
18 5 33 9 35 9 1 -1 27 7 57 17 30 11 57 20 60 20 3 1 14 5 25 10 11 4 47 19
80 32 63 26 246 121 255 133 3 3 21 15 40 26 19 10 37 21 40 24 3 3 43 35 90
72 247 192 403 400 553 738 23 52 103 279 112 317 2 10 14 54 25 98 12 44 37
148 56 230 19 83 37 157 39 165 2 8 11 40 20 70 9 30 18 62 20 70 32 132 129
352 202 463 53 81 171 203 251 259 61 44 202 122 202 112 0 -3 6 -2 13 4 18
15 114 42 177 49 101 13 276 6 323 -13 60 -23 -49 112 -139 172 -125 83 -363
156 -584 179 -30 3 -71 8 -90 12 -34 5 -477 12 -482 8z"/>
<path d="M4877 3524 c-2 -3 -35 -6 -73 -9 -157 -9 -330 -63 -441 -137 -42 -29
-93 -82 -93 -99 0 -15 43 -37 107 -53 159 -41 286 -136 390 -294 53 -81 78
-104 92 -86 3 5 26 25 51 45 48 39 130 118 130 125 0 2 8 12 18 22 72 77 162
230 168 287 11 103 -90 180 -250 191 -39 3 -76 7 -83 9 -6 2 -13 2 -16 -1z"/>
</g>
</svg>
